<svg width="256" height="256" viewBox="0 0 256 256" fill="none" xmlns="http://www.w3.org/2000/svg">
  <defs>
    <linearGradient id="outer" x1="42" y1="24" x2="218" y2="235" gradientUnits="userSpaceOnUse">
      <stop stop-color="#0F172A"/>
      <stop offset="1" stop-color="#111827"/>
    </linearGradient>
    <linearGradient id="panel" x1="52" y1="42" x2="202" y2="210" gradientUnits="userSpaceOnUse">
      <stop stop-color="#3B82F6"/>
      <stop offset="0.55" stop-color="#2563EB"/>
      <stop offset="1" stop-color="#1D4ED8"/>
    </linearGradient>
    <linearGradient id="mark" x1="68" y1="66" x2="160" y2="190" gradientUnits="userSpaceOnUse">
      <stop stop-color="#FFFFFF"/>
      <stop offset="1" stop-color="#EAF2FF"/>
    </linearGradient>
    <filter id="softShadow" x="14" y="17" width="228" height="228" filterUnits="userSpaceOnUse" color-interpolation-filters="sRGB">
      <feFlood flood-opacity="0" result="BackgroundImageFix"/>
      <feColorMatrix in="SourceAlpha" type="matrix" values="0 0 0 0 0 0 0 0 0 0 0 0 0 0 0 0 0 0 127 0" result="hardAlpha"/>
      <feOffset dy="10"/>
      <feGaussianBlur stdDeviation="12"/>
      <feColorMatrix type="matrix" values="0 0 0 0 0.020 0 0 0 0 0.047 0 0 0 0 0.106 0 0 0 0.28 0"/>
      <feBlend mode="normal" in2="BackgroundImageFix" result="effect1_dropShadow"/>
      <feBlend mode="normal" in="SourceGraphic" in2="effect1_dropShadow" result="shape"/>
    </filter>
  </defs>

  <g filter="url(#softShadow)">
    <rect x="19" y="19" width="218" height="218" rx="54" fill="url(#outer)"/>
    <rect x="36" y="34" width="184" height="188" rx="43" fill="url(#panel)"/>
    <path d="M48 49C48 43.4772 52.4772 39 58 39H198C203.523 39 208 43.4772 208 49V88C164.826 69.2509 106.934 66.4691 48 82V49Z" fill="white" fill-opacity="0.14"/>
    <path fill-rule="evenodd" clip-rule="evenodd" d="M73 69C73 64.5817 76.5817 61 81 61H103C107.418 61 111 64.5817 111 69V154H157C161.418 154 165 157.582 165 162V181C165 185.418 161.418 189 157 189H81C76.5817 189 73 185.418 73 181V69Z" fill="url(#mark)"/>
    <rect x="151" y="64" width="34" height="34" rx="10" fill="#ECF5FF" fill-opacity="0.96"/>
    <rect x="151" y="112" width="34" height="77" rx="11" fill="#C9DDFF" fill-opacity="0.72"/>
    <rect x="168" y="130" width="17" height="59" rx="8.5" fill="#8DB8FF" fill-opacity="0.5"/>
    <circle cx="184" cy="86" r="6" fill="#7DD3FC"/>
  </g>
</svg>
